<?xml version="1.0" encoding="utf-8"?>
<!-- Generator: Adobe Illustrator 19.1.0, SVG Export Plug-In . SVG Version: 6.00 Build 0)  -->
<svg version="1.1" id="Слой_1" xmlns="http://www.w3.org/2000/svg" xmlns:xlink="http://www.w3.org/1999/xlink" x="0px" y="0px"
	 viewBox="-291 391 20 13" style="enable-background:new -291 391 20 13;" xml:space="preserve">
<path d="M-277,391c-1.1,0-2.2,0.4-3.2,1h-8.8c-1.1,0-2,0.9-2,2v6c0,1.1,0.9,2,2,2h1v1c0,0.5,0.5,1,1,1h2c0.5,0,1-0.5,1-1v-1h6v1
	c0,0.5,0.5,1,1,1h2c0.5,0,1-0.5,1-1v-1h1c1.1,0,2-0.9,2-2v-6c0-1.1-0.9-2-2-2h-0.9C-274.8,391.4-275.9,391-277,391 M-277,392.5
	c1.9,0,3.5,1.6,3.5,3.5s-1.6,3.5-3.5,3.5s-3.5-1.6-3.5-3.5S-278.9,392.5-277,392.5 M-289,394h4v1h-4V394 M-277,394c-1.1,0-2,0.9-2,2
	s0.9,2,2,2s2-0.9,2-2S-275.9,394-277,394 M-289,396h4v1h-4V396 M-289,398h4v1h-4V398z"/>
</svg>
