<svg xmlns="http://www.w3.org/2000/svg" viewBox="0 0 304.36 304.36" fill="#fff"><path d="M261.945 175.576c10.096 9.857 20.752 19.13 29.807 29.982 4 4.822 7.787 9.798 10.684 15.394 4.105 7.955.387 16.71-6.746 17.184l-44.34-.02c-11.436.95-20.56-3.655-28.23-11.474-6.14-6.253-11.824-12.908-17.727-19.372-2.42-2.642-4.953-5.128-7.98-7.093-6.052-3.93-11.306-2.726-14.765 3.587-3.523 6.42-4.322 13.53-4.668 20.687-.475 10.442-3.63 13.187-14.12 13.665-22.413 1.057-43.685-2.334-63.446-13.64-17.422-9.97-30.932-24.04-42.69-39.972-22.896-31.02-40.43-65.108-56.187-100.15C-2.01 76.458.584 72.22 9.295 72.07c14.465-.28 28.928-.26 43.41-.02 5.88.086 9.77 3.458 12.04 9.012 7.827 19.243 17.403 37.55 29.423 54.52 3.2 4.52 6.465 9.037 11.113 12.217 5.143 3.52 9.058 2.353 11.477-3.375 1.535-3.632 2.207-7.544 2.553-11.434 1.146-13.382 1.297-26.742-.713-40.078-1.234-8.323-5.922-13.71-14.227-15.286-4.238-.803-3.607-2.38-1.555-4.8 3.564-4.17 6.916-6.768 13.598-6.768h50.11c7.89 1.557 9.642 5.1 10.722 13.04l.043 55.662c-.086 3.073 1.535 12.192 7.07 14.226 4.43 1.448 7.35-2.096 10.008-4.905 11.998-12.733 20.56-27.782 28.21-43.365 3.396-6.852 6.315-13.968 9.144-21.078 2.096-5.276 5.385-7.872 11.328-7.757l48.23.043c1.43 0 2.876.02 4.26.258 8.128 1.386 10.355 4.882 7.845 12.818-3.955 12.45-11.65 22.827-19.174 33.25-8.044 11.13-16.646 21.878-24.622 33.073-7.328 10.224-6.746 15.377 2.357 24.256zm0 0" fill-rule="evenodd" clip-rule="evenodd"/></svg>