<?xml version="1.0" encoding="utf-8"?>
<!-- Generator: Adobe Illustrator 19.1.0, SVG Export Plug-In . SVG Version: 6.00 Build 0)  -->
<svg version="1.1" id="Capa_1" xmlns="http://www.w3.org/2000/svg" xmlns:xlink="http://www.w3.org/1999/xlink" x="0px" y="0px"
	 viewBox="-49 173.2 440.2 465.8" style="enable-background:new -49 173.2 440.2 465.8;" xml:space="preserve">
<style type="text/css">
	.st0{fill:#FFFFFF;}
</style>
<g>
	<path class="st0" d="M-37.9,433l194.6,194.6c7.6,7.6,16.7,11.4,27.2,11.4c10.4,0,19.4-3.8,26.9-11.4l22.4-22.4
		c7.6-7.2,11.4-16.1,11.4-26.9c0-10.7-3.8-19.7-11.4-26.9l-87.6-87.9h210.6c10.4,0,18.7-3.7,25.3-11.2c6.5-7.5,9.7-16.5,9.7-27
		v-38.3c0-10.6-3.3-19.6-9.7-27c-6.5-7.5-14.9-11.2-25.3-11.2H145.7l87.6-87.6c7.6-7.6,11.4-16.7,11.4-27.2
		c0-10.6-3.8-19.7-11.4-27.2L211,184.3c-7.7-7.4-16.7-11.1-26.9-11.1c-10.4,0-19.5,3.7-27.2,11.1L-37.9,378.8
		c-7.4,7.4-11.1,16.5-11.1,27.2C-49,417-45.3,426-37.9,433z"/>
</g>
</svg>
