<svg id="Layer_1" xmlns="http://www.w3.org/2000/svg" viewBox="0 0 295.4 84.1"><style>.st0{fill:#fff;}</style><path class="st0" d="M36.7 53.5h-5.1L4 27.7v25.7H0V1.2h4V25L29.4 1.2h4.9v.4L8 26.2l28.7 27v.3zM98.7 13.4c7.3 11.7 6.9 27.5-7.9 36.9C75.9 59.6 61.4 53 54 41.4 46.5 29.5 47 14 62 4.6c14.9-9.4 29.2-3.2 36.7 8.8zM163.9 53.5h-5.1l-27.6-25.8v25.7h-4V1.2h4V25l25.4-23.8h4.9v.4l-26.3 24.6 28.7 27v.3zM222.3 46c-9.8 9.7-25.3 12.8-37.7.4-12.4-12.4-9.2-28 .5-37.8 9.9-9.9 25.2-12.8 37.6-.4 12.5 12.6 9.6 27.9-.4 37.8zM256.3 1.2l35.2 43.2V1.2h4v52.3h-1.6l-35.2-43.2v43.2h-4V1.2h1.6zM91.5 77.5c-.6-.9-1.5-1.1-2.4-1.1-.9 0-2.4.3-2.4 1.6 0 1 1.1 1.3 2.5 1.5 1.5.3 3.2.6 3.2 2.3 0 1.8-1.8 2.3-3.2 2.3-1.3 0-2.7-.5-3.3-1.7l.6-.3c.5 1 1.8 1.5 2.7 1.5 1 0 2.6-.3 2.6-1.7 0-1.2-1.3-1.5-2.6-1.7-1.5-.3-3-.6-3-2.1 0-1.7 1.7-2.2 3.1-2.2 1.1 0 2.1.2 2.9 1.4l-.7.2zM116 81.2V84h-.6v-8h3.5c3.5 0 3.5 5.3 0 5.3H116zm0-4.7v4.1h2.9c2.7 0 2.7-4.1 0-4.1H116zM151 84l-.9-2h-4.8l-.9 2h-.7l3.6-8h.7l3.6 8h-.6zm-1.1-2.6l-2.2-4.9-2.2 4.9h4.4zM180.7 82.9c-.8.8-1.9 1.2-2.9 1.2-2.7 0-4.1-1.9-4.1-4.1 0-2.1 1.4-4.2 4.1-4.2 1.1 0 2.1.4 2.9 1.2l-.4.4c-.7-.7-1.6-1-2.5-1-2.3 0-3.5 1.7-3.5 3.6 0 1.9 1.2 3.5 3.5 3.5.9 0 1.8-.3 2.5-1l.4.4zM204.6 79.6h4.7v.6h-4.7v3.2h5.1v.6H204v-8h5.5v.6h-4.9v3z"/></svg>