<svg version="1.1" id="Layer_1" xmlns="http://www.w3.org/2000/svg" xmlns:xlink="http://www.w3.org/1999/xlink" x="0px" y="0px"
   viewBox="0 0 295.4 84.1" style="enable-background:new 0 0 295.4 84.1;" xml:space="preserve">
<style type="text/css">
  .st0{fill:#fff;}
</style>
<g>
  <path class="st0" d="M36.7,53.5h-5.1L4,27.7v25.7H0V1.2h4V25L29.4,1.2h4.9v0.4L8,26.2l28.7,27V53.5z"/>
  <path class="st0" d="M98.7,13.4c7.3,11.7,6.9,27.5-7.9,36.9C75.9,59.6,61.4,53,54,41.4c-7.5-11.9-7-27.4,8-36.8
    C76.9-4.8,91.2,1.4,98.7,13.4z"/>
  <path class="st0" d="M163.9,53.5h-5.1l-27.6-25.8v25.7h-4V1.2h4V25l25.4-23.8h4.9v0.4l-26.3,24.6l28.7,27V53.5z"/>
  <path class="st0" d="M222.3,46c-9.8,9.7-25.3,12.8-37.7,0.4c-12.4-12.4-9.2-28,0.5-37.8c9.9-9.9,25.2-12.8,37.6-0.4
    C235.2,20.8,232.3,36.1,222.3,46z"/>
  <path class="st0" d="M256.3,1.2l35.2,43.2V1.2h4v52.3h-1.6l-35.2-43.2v43.2h-4V1.2H256.3z"/>
  <path class="st0" d="M91.5,77.5c-0.6-0.9-1.5-1.1-2.4-1.1c-0.9,0-2.4,0.3-2.4,1.6c0,1,1.1,1.3,2.5,1.5c1.5,0.3,3.2,0.6,3.2,2.3
    c0,1.8-1.8,2.3-3.2,2.3c-1.3,0-2.7-0.5-3.3-1.7l0.6-0.3c0.5,1,1.8,1.5,2.7,1.5c1,0,2.6-0.3,2.6-1.7c0-1.2-1.3-1.5-2.6-1.7
    c-1.5-0.3-3-0.6-3-2.1c0-1.7,1.7-2.2,3.1-2.2c1.1,0,2.1,0.2,2.9,1.4L91.5,77.5z"/>
  <path class="st0" d="M116,81.2V84h-0.6v-8c1.2,0,2.4,0,3.5,0c3.5,0,3.5,5.3,0,5.3H116z M116,76.5v4.1h2.9c2.7,0,2.7-4.1,0-4.1H116z
    "/>
  <path class="st0" d="M151,84l-0.9-2h-4.8l-0.9,2h-0.7l3.6-8h0.7l3.6,8H151z M149.9,81.4l-2.2-4.9l-2.2,4.9H149.9z"/>
  <path class="st0" d="M180.7,82.9c-0.8,0.8-1.9,1.2-2.9,1.2c-2.7,0-4.1-1.9-4.1-4.1c0-2.1,1.4-4.2,4.1-4.2c1.1,0,2.1,0.4,2.9,1.2
    l-0.4,0.4c-0.7-0.7-1.6-1-2.5-1c-2.3,0-3.5,1.7-3.5,3.6c0,1.9,1.2,3.5,3.5,3.5c0.9,0,1.8-0.3,2.5-1L180.7,82.9z"/>
  <path class="st0" d="M204.6,79.6h4.7v0.6h-4.7v3.2h5.1V84H204v-8h5.5v0.6h-4.9V79.6z"/>
</g>
</svg>
