<?xml version="1.0" encoding="utf-8"?>
<!-- Generator: Adobe Illustrator 19.1.0, SVG Export Plug-In . SVG Version: 6.00 Build 0)  -->
<svg version="1.1" id="Слой_1" xmlns="http://www.w3.org/2000/svg" xmlns:xlink="http://www.w3.org/1999/xlink" x="0px" y="0px"
	 viewBox="-272 392 67 10" style="enable-background:new -272 392 67 10;" xml:space="preserve">
<style type="text/css">
	.st0{fill:#0A1140;}
	.st1{fill:#E72273;}
</style>
<path class="st0" d="M-264.4,401.7l-4.8-4.6v4.6h-2.5v-9.5h0.9l4.8,4.7v-4.7h2.5v9.5H-264.4z M-244,398.4c0.4-0.3,0.7-0.6,0.9-1
	c0.2-0.4,0.4-0.8,0.4-1.3c0.1-0.4,0-0.9-0.1-1.4c-0.1-0.5-0.3-0.9-0.6-1.2c-0.3-0.4-0.6-0.7-1.1-0.9c-0.5-0.2-1-0.3-1.6-0.3h-4.2
	v9.5h2.4v-2.9h1.3l1.6,2.8h2.7v-0.3C-242.3,401.4-244,398.4-244,398.4z M-245,395.9c0,0.2-0.2,0.4-0.3,0.6c-0.2,0.2-0.4,0.2-0.6,0.2
	h-1.7v-2.3h1.6c0.3,0,0.5,0.1,0.7,0.3c0.2,0.1,0.3,0.3,0.3,0.5V395.9z M-232.9,394.7c-0.3-0.7-0.9-1.3-1.6-1.8s-1.6-0.7-2.6-0.7
	h-3.6v9.5h3.6c1,0,1.8-0.2,2.6-0.7c0.7-0.5,1.2-1.1,1.6-1.8c0.3-0.7,0.5-1.5,0.5-2.3C-232.4,396.2-232.6,395.4-232.9,394.7z
	 M-235,398.2c-0.2,0.4-0.4,0.7-0.8,0.9c-0.4,0.2-0.8,0.4-1.3,0.4h-1.2v-5.1h1.2c0.5,0,0.9,0.1,1.3,0.4c0.4,0.2,0.6,0.6,0.8,0.9
	c0.2,0.4,0.2,0.8,0.2,1.2C-234.8,397.4-234.9,397.8-235,398.2z"/>
<path class="st1" d="M-214.7,398.4c0.4-0.3,0.7-0.6,0.9-1s0.4-0.8,0.4-1.3c0.1-0.4,0-0.9-0.1-1.4c-0.1-0.5-0.3-0.9-0.6-1.2
	c-0.3-0.4-0.6-0.7-1.1-0.9c-0.5-0.2-1-0.3-1.6-0.3h-4.2v9.5h2.4v-2.9h1.3l1.6,2.8h2.7v-0.3C-213,401.4-214.7,398.4-214.7,398.4z
	 M-215.8,395.9c0,0.2-0.2,0.4-0.3,0.6c-0.2,0.2-0.4,0.2-0.6,0.2h-1.7v-2.3h1.6c0.3,0,0.5,0.1,0.7,0.3c0.2,0.2,0.3,0.4,0.3,0.6
	C-215.7,395.5-215.7,395.7-215.8,395.9z M-207.6,394.4v7.3h-2.4v-7.3h-2.4v-2.2h7.1v2.2C-205.3,394.4-207.6,394.4-207.6,394.4z"/>
<path class="st0" d="M-252.4,394.8c-0.2-0.5-0.5-1-0.9-1.4l1-1.3l-2-0.1l-0.4,0.5c-0.1-0.1-0.3-0.1-0.4-0.2
	c-0.6-0.2-1.2-0.3-1.8-0.3s-1.2,0.1-1.8,0.3c-0.6,0.2-1.1,0.5-1.6,0.9c-0.5,0.4-0.8,0.9-1.1,1.5c-0.3,0.6-0.4,1.4-0.4,2.2
	c0,0.8,0.1,1.5,0.4,2.2c0.2,0.5,0.5,0.9,0.8,1.2l-1.2,1.6h2l0.4-0.5l0.6,0.3c0.6,0.2,1.2,0.3,1.8,0.3s1.2-0.1,1.8-0.3
	c0.6-0.2,1.1-0.5,1.6-0.9c0.5-0.4,0.8-0.9,1.1-1.6c0.4-0.7,0.5-1.4,0.5-2.2S-252.1,395.5-252.4,394.8z M-259.2,397
	c0-0.5,0.1-1,0.4-1.4c0.2-0.4,0.5-0.7,0.9-0.9c0.4-0.2,0.7-0.3,1.1-0.3c0.3,0,0.5,0,0.7,0.1l-2.8,3.8
	C-259.1,397.9-259.2,397.5-259.2,397z M-254.8,398.4c-0.2,0.4-0.5,0.7-0.9,0.9c-0.4,0.2-0.7,0.3-1.1,0.3c-0.3,0-0.6-0.1-0.9-0.2
	l2.9-3.9v0.1c0.2,0.4,0.4,0.8,0.4,1.4C-254.4,397.5-254.6,398-254.8,398.4z"/>
<path class="st1" d="M-226.4,392.1h-1l-4.3,9.3v0.4h2.4l0.6-1.2h3.7l0.6,1.2h2.4v-0.4L-226.4,392.1z M-228,398.5l1-2.5l1.1,2.5H-228
	z"/>
</svg>
