<svg xmlns="http://www.w3.org/2000/svg" style="display:none"><symbol id="clipboard-text" viewbox="0 0 24 24"><path d="M17 9H7V7h10m0 6H7v-2h10m-3 6H7v-2h7M12 3c.55 0 1 .45 1 1s-.45 1-1 1-1-.45-1-1 .45-1 1-1m7 0h-4.18C14.4 1.84 13.3 1 12 1c-1.3 0-2.4.84-2.82 2H5c-1.1 0-2 .9-2 2v14c0 1.1.9 2 2 2h14c1.1 0 2-.9 2-2V5c0-1.1-.9-2-2-2z"/></symbol><symbol id="coffee" viewbox="0 0 24 24"><path d="M2 21h18v-2H2M20 8h-2V5h2m0-2H4v10c0 2.21 1.79 4 4 4h6c2.21 0 4-1.79 4-4v-3h2c1.1 0 2-.9 2-2V5a2 2 0 0 0-2-2z"/></symbol><symbol id="facebook" viewbox="0 0 430.113 430.114"><path d="M158.08 83.3v59.218h-43.384v72.412h43.385v215.183h89.123V214.936h59.805s5.6-34.72 8.316-72.685H247.54V92.74c0-7.4 9.717-17.354 19.32-17.354h48.558V0h-66.02c-93.52-.004-91.317 72.48-91.317 83.3z"/></symbol><symbol id="instagram" viewbox="0 0 169.063 169.063"><path d="M122.406 0H46.654C20.93 0 0 20.93 0 46.655v75.752c0 25.726 20.93 46.655 46.654 46.655h75.752c25.727 0 46.656-20.93 46.656-46.655V46.655C169.062 20.93 148.132 0 122.406 0zm31.657 122.407c0 17.455-14.2 31.655-31.656 31.655H46.654C29.2 154.062 15 139.862 15 122.407V46.655C15 29.2 29.2 15 46.654 15h75.752c17.455 0 31.656 14.2 31.656 31.655v75.752z"/><path d="M84.53 40.97c-24.02 0-43.562 19.542-43.562 43.563 0 24.02 19.542 43.56 43.563 43.56s43.564-19.54 43.564-43.56c0-24.02-19.542-43.563-43.563-43.563zm0 72.123c-15.748 0-28.562-12.812-28.562-28.56 0-15.75 12.813-28.564 28.563-28.564s28.564 12.812 28.564 28.562c0 15.75-12.814 28.56-28.563 28.56zm45.39-84.843c-2.89 0-5.728 1.17-7.77 3.22a11.057 11.057 0 0 0-3.23 7.78c0 2.892 1.18 5.73 3.23 7.78 2.04 2.04 4.88 3.22 7.77 3.22 2.9 0 5.73-1.18 7.78-3.22 2.05-2.05 3.22-4.89 3.22-7.78 0-2.9-1.17-5.74-3.22-7.78-2.04-2.05-4.88-3.22-7.78-3.22z"/></symbol><symbol id="music" viewbox="0 0 24 24"><path d="M21 3v12.5c0 1.93-1.57 3.5-3.5 3.5S14 17.43 14 15.5s1.57-3.5 3.5-3.5c.54 0 1.05.12 1.5.34V6.47L9 8.6v8.9C9 19.43 7.43 21 5.5 21S2 19.43 2 17.5 3.57 14 5.5 14c.54 0 1.05.12 1.5.34V6l14-3z"/></symbol><symbol id="projector" viewbox="-291 391 20 13"><path d="M-277 391c-1.1 0-2.2.4-3.2 1h-8.8c-1.1 0-2 .9-2 2v6c0 1.1.9 2 2 2h1v1c0 .5.5 1 1 1h2c.5 0 1-.5 1-1v-1h6v1c0 .5.5 1 1 1h2c.5 0 1-.5 1-1v-1h1c1.1 0 2-.9 2-2v-6c0-1.1-.9-2-2-2h-.9c-.9-.6-2-1-3.1-1m0 1.5c1.9 0 3.5 1.6 3.5 3.5s-1.6 3.5-3.5 3.5-3.5-1.6-3.5-3.5 1.6-3.5 3.5-3.5m-12 1.5h4v1h-4v-1m12 0c-1.1 0-2 .9-2 2s.9 2 2 2 2-.9 2-2-.9-2-2-2m-12 2h4v1h-4v-1m0 2h4v1h-4v-1z"/></symbol><symbol id="vk" viewbox="0 0 304.36 304.36"><path d="M261.945 175.576c10.096 9.857 20.752 19.13 29.807 29.982 4 4.822 7.787 9.798 10.684 15.394 4.105 7.955.387 16.71-6.746 17.184l-44.34-.02c-11.436.95-20.56-3.655-28.23-11.474-6.14-6.253-11.824-12.908-17.727-19.372-2.42-2.642-4.953-5.128-7.98-7.093-6.052-3.93-11.306-2.726-14.765 3.587-3.523 6.42-4.322 13.53-4.668 20.687-.475 10.442-3.63 13.187-14.12 13.665-22.413 1.057-43.685-2.334-63.446-13.64-17.422-9.97-30.932-24.04-42.69-39.972-22.896-31.02-40.43-65.108-56.187-100.15C-2.01 76.458.584 72.22 9.295 72.07c14.465-.28 28.928-.26 43.41-.02 5.88.086 9.77 3.458 12.04 9.012 7.827 19.243 17.403 37.55 29.423 54.52 3.2 4.52 6.465 9.037 11.113 12.217 5.143 3.52 9.058 2.353 11.477-3.375 1.535-3.632 2.207-7.544 2.553-11.434 1.146-13.382 1.297-26.742-.713-40.078-1.234-8.323-5.922-13.71-14.227-15.286-4.238-.803-3.607-2.38-1.555-4.8 3.564-4.17 6.916-6.768 13.598-6.768h50.11c7.89 1.557 9.642 5.1 10.722 13.04l.043 55.662c-.086 3.073 1.535 12.192 7.07 14.226 4.43 1.448 7.35-2.096 10.008-4.905 11.998-12.733 20.56-27.782 28.21-43.365 3.396-6.852 6.315-13.968 9.144-21.078 2.096-5.276 5.385-7.872 11.328-7.757l48.23.043c1.43 0 2.876.02 4.26.258 8.128 1.386 10.355 4.882 7.845 12.818-3.955 12.45-11.65 22.827-19.174 33.25-8.044 11.13-16.646 21.878-24.622 33.073-7.328 10.224-6.746 15.377 2.357 24.256zm0 0" fill-rule="evenodd" clip-rule="evenodd"/></symbol><symbol id="wifi" viewbox="0 0 24 24"><path d="M12 21l3.6-4.8c-1-.75-2.25-1.2-3.6-1.2s-2.6.45-3.6 1.2L12 21m0-18C7.95 3 4.21 4.34 1.2 6.6L3 9c2.5-1.88 5.62-3 9-3s6.5 1.12 9 3l1.8-2.4C19.79 4.34 16.05 3 12 3m0 6c-2.7 0-5.19.89-7.2 2.4l1.8 2.4C8.1 12.67 9.97 12 12 12c2.03 0 3.9.67 5.4 1.8l1.8-2.4C17.19 9.89 14.7 9 12 9z"/></symbol></svg>