<svg id="Capa_1" xmlns="http://www.w3.org/2000/svg" viewBox="-49 173.2 440.2 465.8"><style>.st0{fill:#fff}</style><path class="st0" d="M-37.9 433l194.6 194.6c7.6 7.6 16.7 11.4 27.2 11.4 10.4 0 19.4-3.8 26.9-11.4l22.4-22.4c7.6-7.2 11.4-16.1 11.4-26.9 0-10.7-3.8-19.7-11.4-26.9l-87.6-87.9h210.6c10.4 0 18.7-3.7 25.3-11.2 6.5-7.5 9.7-16.5 9.7-27V387c0-10.6-3.3-19.6-9.7-27-6.5-7.5-14.9-11.2-25.3-11.2H145.7l87.6-87.6c7.6-7.6 11.4-16.7 11.4-27.2 0-10.6-3.8-19.7-11.4-27.2L211 184.3c-7.7-7.4-16.7-11.1-26.9-11.1-10.4 0-19.5 3.7-27.2 11.1L-37.9 378.8C-45.3 386.2-49 395.3-49 406c0 11 3.7 20 11.1 27z"/></svg>