<svg xmlns="http://www.w3.org/2000/svg" width="2500" height="2500" viewBox="0 0 192.756 192.756"><g fill-rule="evenodd" clip-rule="evenodd"><path fill="#fff" d="M0 0h192.756v192.756H0V0z"/><path d="M2.834 63.4H189.92v65.956H2.835V63.4zm1.903 33.137c0-16.725 41.17-30.283 91.958-30.283 50.787 0 91.957 13.558 91.957 30.283s-41.17 30.283-91.957 30.283c-50.787 0-91.958-13.558-91.958-30.283 0 0 0 16.725 0 0z" fill="#2360a5"/><path d="M4.737 96.537c0-16.725 41.17-30.283 91.958-30.283 50.787 0 91.957 13.558 91.957 30.283s-41.17 30.283-91.957 30.283c-50.787 0-91.958-13.558-91.958-30.283 0 0 0 16.725 0 0z" fill="#f6d33c"/><path d="M29.842 84.052h16.346s-.436.686-.436 1.543v21.043c0 1.143.49 2.115.49 2.115H29.788s.49-.973.49-1.945V85.766c0-.8-.436-1.714-.436-1.714zm24.484.056H69.87s-.437.732-.437 1.41v7.55l5.508-7.044s.33-.507.33-1.014v-.79h15.814l-6.708 9.354s-.327.394-.327.676.272.676.272.676l8.617 13.69H73.903s.328-.505.328-1.013c0-.506-.328-1.127-.328-1.127l-4.527-7.38v8c0 .677.49 1.577.49 1.577h-15.54s.435-.62.435-1.295V85.516c0-.675-.436-1.408-.436-1.408zm43.242.17h27.803v7.47s-.6-.554-1.36-.554h-11.395v2.046h9.922v6.583s-.654-.553-1.363-.553h-8.668v2.268h11.666c.654 0 1.037-1.05 1.037-1.05v8.185H97.567s.492-.72.492-1.217v-21.35c0-.887-.492-1.827-.492-1.827zm40.104-.267h22.23s-.436 1.03-.436 1.602.38 1.6.38 1.6l8.882 21.5h-16.672s.38-.628.162-1.142a389.905 389.905 0 0 1-1.36-3.432h-6.866s-1.363 3.03-1.363 3.604c0 .57.437 1.03.437 1.03h-13.732l8.61-22.474s.327-.458.327-1.03-.6-1.257-.6-1.257zm9.426 10.98l-1.635 4.403h3.596l-1.962-4.403z" fill="#2360a5"/></g></svg>