<svg xmlns="http://www.w3.org/2000/svg" width="2500" height="2500" viewBox="0 0 192.756 192.756"><g fill-rule="evenodd" clip-rule="evenodd"><path fill="#fff" d="M0 0h192.756v192.756H0V0z"/><path fill="#304296" d="M2.834 117.963v-43.17h187.088v43.17H2.834z"/><path d="M178.186 87.634l-.346-.597c-.3-.524-.38-.606-.635-.696v-.013c.502-.06.8-.38.8-.83 0-.47-.298-.83-.935-.83h-1.465v2.967h.598v-1.218h.11c.263 0 .37.03.49.148.114.12.298.375.4.584l.24.485h.743zm-1.983-1.688v-.816h.553c.404 0 .613.144.613.403 0 .21-.134.412-.546.412h-.62zm.666-2.048a2.245 2.245 0 1 1 0 4.492 2.246 2.246 0 0 1-2.243-2.25 2.24 2.24 0 0 1 2.242-2.242v-.554a2.79 2.79 0 0 0-2.798 2.796 2.793 2.793 0 0 0 2.797 2.796 2.793 2.793 0 0 0 2.794-2.796 2.79 2.79 0 0 0-2.795-2.796v.554zm-139.79.77s.197.975.197 1.364v13.59s-.716 7.997 9.168 7.997c9.914 0 9.17-7.476 9.17-7.476V85.317l.19-.65H52.62s.39.78.39 1.17v15.215s.263 4.55-5.982 4.55c-7.087 0-7.15-4.905-7.15-4.905v-14.99s0-.584.39-1.04H37.08zm52.086 22.498c.26-.977.26-2.47.26-2.47l-1.17-17.428s-6.112 17.232-6.374 18.207c-.26.975-.197 1.69-.197 1.69h-4.29l-.064-.716-5.98-19.116s-1.303 15.216-1.433 16.32c-.128 1.105.196 3.512.196 3.512h-2.99c.064-.324.518-3.252.518-3.252s1.11-15.54 1.173-16.775c.064-1.236 0-2.473 0-2.473h4.683s.39 1.95.583 2.6c.196.652 5.66 17.04 5.66 17.04l6.305-18.6s.26-.843.132-1.04h4.875s-.13.586-.065 2.016c.065 1.43 1.106 19.637 1.106 19.637l.26.846h-3.187zm56.504-22.5c-.39.717-.39 1.595-.39 1.595v20.906h-4.292l-13.72-20.743v19.25c0 .843.585 1.493.585 1.493h-3.51c.518-.424.584-1.465.584-1.465V86.166c0-.848-.39-1.498-.39-1.498h5.007l13.135 19.963v-18.4s-.132-.976-.456-1.562h3.446zM28.11 104.632c-.457.358-2.115.456-2.115.456H18.68V85.61c0-.554.292-.943.292-.943h-3.35s.36.586.294.943c-.047.257 0 19.864 0 19.864s.032.912-.455 1.723h12.453l.196-2.566zm87.78.13c-.392.262-1.624.262-1.624.262h-6.31c-1.367 0-1.366-.912-1.366-.912v-7.607h5.725c1.43 0 1.754.453 1.754.453v-3.184c-.423.488-1.562.52-1.562.52h-5.918V86.75h7.023c1.105 0 1.63.455 1.63.455v-2.537h-11.708s.453 1.3.453 2.34v17.752s.066 1.234-.615 2.406h12.256l.26-2.406zm53.188 0c-.39.262-1.625.262-1.625.262h-6.307c-1.367 0-1.367-.912-1.367-.912v-7.607h5.722c1.432 0 1.756.453 1.756.453v-3.184c-.424.488-1.56.52-1.56.52h-5.92V86.75h7.024c1.105 0 1.625.455 1.625.455v-2.537h-11.705s.46 1.3.46 2.34v17.752s.063 1.234-.62 2.406h12.258l.258-2.406z" fill="#fff"/></g></svg>