<svg xmlns="http://www.w3.org/2000/svg" width="2500" height="2500" viewBox="0 0 192.756 192.756"><g fill-rule="evenodd" clip-rule="evenodd"><path fill="#fff" d="M0 0h192.756v192.756H0V0z"/><path d="M144.53 114.826V97.518h19.438v4.71h-9.213v1.673h8.367v4.435h-8.367v1.838h9.453v4.69h-19.68.055l-.054-.037zm0-23.598V80.745c1.27-.754 2.813-1.177 4.487-1.177H167.5v12.838h-4.58V83.67h-13.903c-2.023 0-3.68 1.048-3.68 2.317s1.656 2.317 3.68 2.317h12.36l-3.09 4.102h-9.27c-1.673 0-3.218-.442-4.488-1.178zm21.298 22.163l3.328-4.854c1.508.625 2.832 1.066 4.01 1.36s2.28.442 3.31.442c.718 0 1.27-.092 1.692-.258.404-.146.607-.367.607-.643 0-.498-1.03-.865-3.09-1.104a43.83 43.83 0 0 0-1.545-.203c-2.17-.332-3.844-.883-5.002-1.69-1.16-.812-1.73-1.804-1.73-3.02 0-1.856 1.122-3.364 3.366-4.542 2.244-1.176 5.186-1.766 8.828-1.766 1.674 0 3.31.13 4.928.404 1.62.258 3.256.645 4.912 1.178l-3.2 4.543a16.955 16.955 0 0 0-3.034-1.012 12.83 12.83 0 0 0-2.963-.35c-.717 0-1.287.074-1.69.22-.388.147-.59.35-.59.608 0 .496 1.454.92 4.36 1.287.46.074.826.11 1.084.148 2.005.275 3.567.826 4.726 1.654 1.16.828 1.73 1.82 1.73 2.998 0 1.932-1.16 3.494-3.495 4.71-2.315 1.23-5.35 1.837-9.085 1.837-1.912 0-3.824-.164-5.738-.496a37.31 37.31 0 0 1-5.72-1.45zm19.734-20.985h4.36V84.44c0-4.008-3.79-4.873-5.74-4.873H169.36v12.838h4.485V83.67h9.473c1.287 0 2.244.77 2.244 1.967v6.768zm-55.453 12.93c.66-.056 1.177-.185 1.56-.386.534-.296.812-.718.812-1.25 0-.554-.277-.978-.81-1.27-.386-.222-.9-.37-1.563-.425v-4.488h.552c3.807 0 6.73.498 8.754 1.51 2.023.992 3.035 2.445 3.035 4.322 0 1.25-.515 2.26-1.526 3.052-1.03.81-2.39 1.27-4.12 1.396l7.726 7.027V97.518h-.037v17.346h.037-11.68l-2.74-3.055v-6.474zm14.42-24.59v10.483c-1.987-1.177-3.294-3.09-3.294-5.242 0-2.17 1.307-4.083 3.293-5.24zm-14.42 11.66v-4.727l4.616 4.727h-4.617zm0-9.03v-3.807h4.983l-4.984 3.807zm5.48-3.808h4.58v12.838h-4.58V79.567zm-7.834 22.42v3.384h1.617a9.2 9.2 0 0 0 .736-.034v6.473l-2.355-2.667v5.72h-10.28V97.52h12.634v4.488c-.222-.018-.46-.018-.737-.018h-1.617zm2.353-22.42v3.807l-2.392 1.84 2.39 2.464v4.727h-1.71l-7.008-7.19 7.377-5.647h1.342zm-29.08 35.296V100.37l.388.515c.22.293.477.717.79 1.305a.733.733 0 0 0 .056.13c.146-.276.404-.68.754-1.233.074-.092.11-.146.146-.2l2.41-3.368h11.863l-10.117 9.675v7.67h-6.29v-.002zm0-22.458v-4.102h6.66c2.022 0 3.66-1.048 3.66-2.317s-1.638-2.317-3.66-2.317h-6.66v-4.103h6.66c4.267 0 7.778 2.888 7.778 6.42s-3.512 6.418-7.78 6.418h-6.657zm15.69-15.063h4.58v15.063h-4.58V77.342zm-15.69 2.225v4.102h-6.62c-2.023 0-3.678 1.047-3.678 2.316s1.655 2.317 3.678 2.317h6.622v4.102h-6.62c-4.285 0-7.78-2.888-7.78-6.42s3.495-6.418 7.78-6.418h6.62zm0 20.802v14.493h-4.266v-7.67l-9.748-9.676h11.937l2.078 2.852zm-30.327 14.493v-11.68h-5.83v-5.666h22.124v5.666h-5.83v11.68H70.703zM81.04 92.405h4.358V84.44c0-4.008-3.79-4.873-5.74-4.873H64.836v12.838h4.487V83.67h9.472c1.288 0 2.244.77 2.244 1.967v6.768z" fill="#157563"/><path d="M39.803 87.053a22.55 22.55 0 0 1-12.875 4.028v1.086c4.966 0 9.6-1.563 13.48-4.23l-.605-.883zM26.93 108.555v-3.422a35.31 35.31 0 0 0 14.952-3.328 15.468 15.468 0 0 1-2.74 4.744 37.948 37.948 0 0 1-12.213 2.005zm0-4.323a34.456 34.456 0 0 0 15.32-3.588 15.15 15.15 0 0 0 .57-3.42 31.918 31.918 0 0 1-15.89 4.23v2.778zm0-3.918v-2.28c5.72 0 11.07-1.656 15.632-4.58a13.8 13.8 0 0 1 .276 2.482c-4.71 2.777-10.134 4.378-15.91 4.378zm0-4.046v-1.692a25.737 25.737 0 0 0 14.584-4.524c.24.515.44 1.048.607 1.6-4.395 2.924-9.62 4.616-15.19 4.616zm0-5.187c-4.746 0-9.16-1.47-12.876-4.027-.202.294-.405.588-.59.883 3.882 2.667 8.498 4.23 13.464 4.23V91.08zm0 3.496v1.692c-5.574 0-10.78-1.692-15.193-4.616.184-.552.386-1.085.606-1.6 4.212 2.868 9.215 4.524 14.586 4.524zm0 3.457a28.817 28.817 0 0 1-15.634-4.58c-.147.81-.24 1.637-.258 2.483 4.69 2.776 10.116 4.377 15.89 4.377v-2.28zm0 3.422v2.777a34.514 34.514 0 0 1-15.322-3.588 16.23 16.23 0 0 1-.57-3.42c4.745 2.704 10.152 4.23 15.89 4.23zm0 3.678a35.302 35.302 0 0 1-14.954-3.328 16.254 16.254 0 0 0 2.74 4.744 38.002 38.002 0 0 0 12.213 2.005v-3.422z" fill="#2d509f"/><path d="M47.73 84.22a25.194 25.194 0 0 0-1.36-2.06 27.277 27.277 0 0 1-1.436 1.784v3.366a29.706 29.706 0 0 0 2.796-3.09zm-2.795 28.16v-8.313a39.083 39.083 0 0 0 5.775-3.734 24.124 24.124 0 0 1-5.775 12.046zm0-12.177v-1.03a36.25 36.25 0 0 0 6.033-4.58c.037.387.055.755.055 1.14a39.262 39.262 0 0 1-6.088 4.47zm0-4.266a34.436 34.436 0 0 0 5.554-4.672c-.093-.44-.203-.864-.313-1.288a34.54 34.54 0 0 1-5.242 4.598v1.362zm0-4.157v-2.244a31.793 31.793 0 0 0 3.642-3.733c.276.57.552 1.16.79 1.747a31.118 31.118 0 0 1-4.432 4.23zm0-9.472v-1.93c.258.293.515.606.773.918-.258.35-.516.68-.773 1.012zm0 1.637a25.875 25.875 0 0 1-4.524 3.99c.424.682.792 1.38 1.105 2.116a27.242 27.242 0 0 0 3.42-2.74v-3.365zm0-3.568v1.93a24.12 24.12 0 0 1-5.13 4.746c-2.89-3.973-7.597-6.584-12.876-6.584s-9.97 2.61-12.876 6.583a24.42 24.42 0 0 1-4.102-3.568V79.31c4.358-4.34 10.373-7.026 16.976-7.026 7.155 0 13.574 3.127 18.007 8.093zm0 9.16v2.243a26.18 26.18 0 0 1-2.373 1.674 15.03 15.03 0 0 0-.44-1.802 31.57 31.57 0 0 0 2.813-2.116zm0 5.04v1.36c-.7.44-1.398.88-2.115 1.288.02-.275.02-.57.02-.847v-.44a31.948 31.948 0 0 0 2.095-1.362zm0 4.597v1.03a44.153 44.153 0 0 1-3.053 1.6c.147-.386.257-.772.368-1.16a38.027 38.027 0 0 0 2.685-1.47zm0 4.892v8.312c-4.433 4.967-10.85 8.094-18.006 8.094-6.604 0-12.62-2.686-16.977-7.027v-8.863a39.727 39.727 0 0 0 4.764 1.967c2.924 3.493 7.32 5.737 12.212 5.737s9.287-2.244 12.21-5.738a38.39 38.39 0 0 0 5.795-2.484zm-34.982-3.293V99.76c.552.313 1.104.608 1.655.884.11.387.24.773.368 1.16-.68-.33-1.36-.66-2.023-1.03zm0-4.193v-1.324c.35.24.717.46 1.085.68-.02.148-.02.294-.02.442 0 .276.02.57.02.847-.368-.204-.718-.424-1.085-.645zm0-4.028v-2.188c.588.44 1.177.883 1.784 1.288a15.03 15.03 0 0 0-.44 1.802 32.408 32.408 0 0 1-1.344-.902zm0-4.322a32.463 32.463 0 0 0 2.39 1.82c.314-.734.7-1.434 1.123-2.114a25.343 25.343 0 0 1-3.513-2.925v3.22zm0-8.92v4.175a22.645 22.645 0 0 1-1.784-2.188 22.605 22.605 0 0 1 1.783-1.987zm0 5.7a26.317 26.317 0 0 1-2.39-2.74v3.643a25.607 25.607 0 0 0 2.39 2.317v-3.22zm0 5.354v2.188a33.445 33.445 0 0 1-2.39-1.894v-2.373a36.16 36.16 0 0 0 2.39 2.08zm0 4.892v1.324a28.515 28.515 0 0 1-2.39-1.618v-1.417a30.81 30.81 0 0 0 2.39 1.71zm0 4.506v1.012c-.81-.44-1.6-.92-2.39-1.416v-1.05a35.87 35.87 0 0 0 2.39 1.454zm0 4.82v8.863a24.54 24.54 0 0 1-2.39-2.758v-7.375c.79.442 1.58.864 2.39 1.27zm-2.39-22.31v3.64a25.974 25.974 0 0 1-1.436-1.69c.423-.7.882-1.398 1.36-2.06a.353.353 0 0 1 .075.11zm0 6.014a36.758 36.758 0 0 1-2.282-2.483 29.58 29.58 0 0 0-.77 1.747 32.605 32.605 0 0 0 3.052 3.11v-2.374zm0 5.26v1.416a33.124 33.124 0 0 1-4.176-3.697c.092-.44.184-.864.312-1.288 1.195 1.288 2.482 2.502 3.862 3.568zm0 4.763c-1.656-1.122-3.22-2.336-4.673-3.715l-.055 1.14a42.68 42.68 0 0 0 4.727 3.623v-1.05zm0 5.002v7.375a23.72 23.72 0 0 1-4.397-10.355 41.782 41.782 0 0 0 4.396 2.98z" fill="#157563"/></g></svg>