<svg id="Слой_1" xmlns="http://www.w3.org/2000/svg" viewBox="-272 392 67 10"><style>.st0{fill:#0a1140}.st1{fill:#e72273}</style><path class="st0" d="M-264.4 401.7l-4.8-4.6v4.6h-2.5v-9.5h.9l4.8 4.7v-4.7h2.5v9.5h-.9zm20.4-3.3c.4-.3.7-.6.9-1 .2-.4.4-.8.4-1.3.1-.4 0-.9-.1-1.4-.1-.5-.3-.9-.6-1.2-.3-.4-.6-.7-1.1-.9-.5-.2-1-.3-1.6-.3h-4.2v9.5h2.4v-2.9h1.3l1.6 2.8h2.7v-.3l-1.7-3zm-1-2.5c0 .2-.2.4-.3.6-.2.2-.4.2-.6.2h-1.7v-2.3h1.6c.3 0 .5.1.7.3.2.1.3.3.3.5v.7zm12.1-1.2c-.3-.7-.9-1.3-1.6-1.8s-1.6-.7-2.6-.7h-3.6v9.5h3.6c1 0 1.8-.2 2.6-.7.7-.5 1.2-1.1 1.6-1.8.3-.7.5-1.5.5-2.3 0-.7-.2-1.5-.5-2.2zm-2.1 3.5c-.2.4-.4.7-.8.9-.4.2-.8.4-1.3.4h-1.2v-5.1h1.2c.5 0 .9.1 1.3.4.4.2.6.6.8.9.2.4.2.8.2 1.2 0 .5-.1.9-.2 1.3z"/><path class="st1" d="M-214.7 398.4c.4-.3.7-.6.9-1s.4-.8.4-1.3c.1-.4 0-.9-.1-1.4-.1-.5-.3-.9-.6-1.2-.3-.4-.6-.7-1.1-.9-.5-.2-1-.3-1.6-.3h-4.2v9.5h2.4v-2.9h1.3l1.6 2.8h2.7v-.3l-1.7-3zm-1.1-2.5c0 .2-.2.4-.3.6-.2.2-.4.2-.6.2h-1.7v-2.3h1.6c.3 0 .5.1.7.3.2.2.3.4.3.6.1.2.1.4 0 .6zm8.2-1.5v7.3h-2.4v-7.3h-2.4v-2.2h7.1v2.2h-2.3z"/><path class="st0" d="M-252.4 394.8c-.2-.5-.5-1-.9-1.4l1-1.3-2-.1-.4.5c-.1-.1-.3-.1-.4-.2-.6-.2-1.2-.3-1.8-.3s-1.2.1-1.8.3c-.6.2-1.1.5-1.6.9s-.8.9-1.1 1.5c-.3.6-.4 1.4-.4 2.2 0 .8.1 1.5.4 2.2.2.5.5.9.8 1.2l-1.2 1.6h2l.4-.5.6.3c.6.2 1.2.3 1.8.3s1.2-.1 1.8-.3c.6-.2 1.1-.5 1.6-.9s.8-.9 1.1-1.6c.4-.7.5-1.4.5-2.2s-.1-1.5-.4-2.2zm-6.8 2.2c0-.5.1-1 .4-1.4.2-.4.5-.7.9-.9.4-.2.7-.3 1.1-.3.3 0 .5 0 .7.1l-2.8 3.8c-.2-.4-.3-.8-.3-1.3zm4.4 1.4c-.2.4-.5.7-.9.9-.4.2-.7.3-1.1.3-.3 0-.6-.1-.9-.2l2.9-3.9v.1c.2.4.4.8.4 1.4 0 .5-.2 1-.4 1.4z"/><path class="st1" d="M-226.4 392.1h-1l-4.3 9.3v.4h2.4l.6-1.2h3.7l.6 1.2h2.4v-.4l-4.4-9.3zm-1.6 6.4l1-2.5 1.1 2.5h-2.1z"/></svg>